<svg xmlns="http://www.w3.org/2000/svg" xmlns:xlink="http://www.w3.org/1999/xlink" xmlns:lucid="lucid" width="1383.06" height="583.44"><g transform="translate(-1462.0780962770712 -2630)" lucid:page-tab-id="0_0"><path d="M1000 2500h2000v1000H1000z" fill="#fafafa"/><path d="M1541.83 2940.2c0 10.9-8.84 19.74-19.75 19.74-10.9 0-19.75-8.84-19.75-19.75 0-10.92 8.84-19.76 19.75-19.76 10.9 0 19.75 8.84 19.75 19.75z" stroke="#333" fill="#fff"/><path d="M1522.08 2959.94v50.3a17.25 17.25 0 0 0 2.67 9.22l37.33 58.98m-40-63.2l-40 63.2m0-98.75h80" stroke="#333" fill="none"/><path d="M1482.08 2925.44a5 5 0 0 1 5-5h70a5 5 0 0 1 5 5v170a5 5 0 0 1-5 5h-70a5 5 0 0 1-5-5z" fill="none"/><use xlink:href="#a" transform="matrix(1,0,0,1,1402.0780962770712,3078.4385887632748) translate(84.76543209876543 14.888888888888888)"/><path d="M2804.9 2865.2c0 10.9-8.85 19.74-19.76 19.74-10.9 0-19.75-8.84-19.75-19.75 0-10.92 8.83-19.76 19.74-19.76 10.9 0 19.75 8.84 19.75 19.75z" stroke="#333" fill="#fff"/><path d="M2785.14 2884.94v50.3a17.25 17.25 0 0 0 2.67 9.22l37.34 58.98m-40-63.2l-40 63.2m0-98.75h80" stroke="#333" fill="none"/><path d="M2745.14 2850.44a5 5 0 0 1 5-5h70a5 5 0 0 1 5 5v170a5 5 0 0 1-5 5h-70a5 5 0 0 1-5-5z" fill="none"/><use xlink:href="#b" transform="matrix(1,0,0,1,2665.1389969414395,3003.4385887632748) translate(91.1604938271605 14.888888888888888)"/><path d="M2483.22 2740c0 33.14-35.82 60-80 60-44.2 0-80-26.86-80-60s35.8-60 80-60c44.18 0 80 26.86 80 60z" stroke="#fff" fill="#00c2a8"/><use xlink:href="#c" transform="matrix(1,0,0,1,2323.216994147606,2680) translate(32.004999999999995 62.97222222222222)"/><path d="M2249.72 3133.44c0 33.14-35.82 60-80 60s-80-26.86-80-60 35.82-60 80-60 80 26.86 80 60z" stroke="#fff" fill="#00c2a8"/><use xlink:href="#d" transform="matrix(1,0,0,1,2089.7211235482782,3073.4385887632748) translate(8.325987654320992 62.97222222222222)"/><use xlink:href="#e" transform="matrix(1,0,0,1,2089.7211235482782,3073.4385887632748) translate(67.93092592592593 62.97222222222222)"/><path d="M1558.22 2978.93l409.17-241.4M1558.23 2978.93l-3.03 1.78" stroke="#333" fill="none"/><path d="M1980.1 2730l-9.92 11.25-4.72-7.98z" stroke="#333" fill="#333"/><path d="M1523.07 3010.54l550.14 119.42M1523.1 3010.55l-3.45-.75" stroke="#333" fill="none"/><path d="M2087.64 3133.1l-14.92 1.5 1.96-9.06z" stroke="#333" fill="#333"/><path d="M2784.23 2935.17l-286.77-186.25M2784.2 2935.16l2.96 1.9" stroke="#333" fill="none"/><path d="M2485.07 2740.88l14.5 3.88-5.06 7.78z" stroke="#333" fill="#333"/><path d="M1565.05 2917.08a6 6 0 0 1 2.24-8.18l344.85-196.48a6 6 0 0 1 8.18 2.24l22.3 39.14a6 6 0 0 1-2.25 8.18l-344.85 196.48a6 6 0 0 1-8.2-2.25z" fill="none"/><use xlink:href="#f" transform="matrix(0.8688749672169122,-0.4950316064089342,0.4950316064089342,0.8688749672169122,1578.4449751605816,2916.3530403884215) translate(0 21.444444444444443)"/><use xlink:href="#g" transform="matrix(0.8688749672169122,-0.4950316064089342,0.4950316064089342,0.8688749672169122,1578.4449751605816,2916.3530403884215) translate(79.69135802469135 21.444444444444443)"/><use xlink:href="#h" transform="matrix(0.8688749672169122,-0.4950316064089342,0.4950316064089342,0.8688749672169122,1578.4449751605816,2916.3530403884215) translate(110.43209876543209 21.444444444444443)"/><use xlink:href="#i" transform="matrix(0.8688749672169122,-0.4950316064089342,0.4950316064089342,0.8688749672169122,1578.4449751605816,2916.3530403884215) translate(249.44444444444446 21.444444444444443)"/><path d="M2579.22 2750.45a6 6 0 0 1 8.3-1.7l152.6 100.43a6 6 0 0 1 1.72 8.3l-21.26 32.32a6 6 0 0 1-8.3 1.7l-152.6-100.43a6 6 0 0 1-1.73-8.3z" fill="none"/><use xlink:href="#j" transform="matrix(0.8353008487558825,0.5497931357044232,-0.5497931357044232,0.8353008487558825,2585.941192242266,2762.059716576798) translate(0 17.944444444444443)"/><use xlink:href="#k" transform="matrix(0.8353008487558825,0.5497931357044232,-0.5497931357044232,0.8353008487558825,2585.941192242266,2762.059716576798) translate(74.44444444444444 17.944444444444443)"/><path d="M1697.2 2998.84a6 6 0 0 1 7.2-4.48l200.38 46.6a6 6 0 0 1 4.48 7.2l-8.76 37.68a6 6 0 0 1-7.2 4.48l-200.37-46.6a6 6 0 0 1-4.48-7.2z" fill="none"/><use xlink:href="#l" transform="matrix(0.9739987590985378,0.22655334311042152,-0.22655334311042152,0.9739987590985378,1707.5402423461442,3007.403569628036) translate(0 17.944444444444443)"/><use xlink:href="#m" transform="matrix(0.9739987590985378,0.22655334311042152,-0.22655334311042152,0.9739987590985378,1707.5402423461442,3007.403569628036) translate(78.9506172839506 17.944444444444443)"/><use xlink:href="#n" transform="matrix(0.9739987590985378,0.22655334311042152,-0.22655334311042152,0.9739987590985378,1707.5402423461442,3007.403569628036) translate(97.46913580246913 17.944444444444443)"/><path d="M2783.7 2924.82l-522.46 178.8M2783.67 2924.82l3.8-1.3" stroke="#5e5e5e" stroke-width="2" fill="none"/><path d="M2246.8 3108.58l12-9 3 8.76z" stroke="#5e5e5e" stroke-width="2" fill="#5e5e5e"/><path d="M2299.26 3051.06a6 6 0 0 1 3.66-7.65l326.62-115.26a6 6 0 0 1 7.65 3.66l12.98 36.8a6 6 0 0 1-3.66 7.64L2319.9 3091.5a6 6 0 0 1-7.66-3.65z" fill="none"/><use xlink:href="#o" transform="matrix(0.9429995404751689,-0.3327940303906012,0.3327940303906012,0.9429995404751689,2312.5701709273335,3052.7277658827556) translate(0 18.444444444444443)"/><use xlink:href="#p" transform="matrix(0.9429995404751689,-0.3327940303906012,0.3327940303906012,0.9429995404751689,2312.5701709273335,3052.7277658827556) translate(105.98765432098764 18.444444444444443)"/><use xlink:href="#m" transform="matrix(0.9429995404751689,-0.3327940303906012,0.3327940303906012,0.9429995404751689,2312.5701709273335,3052.7277658827556) translate(188.9506172839506 18.444444444444443)"/><use xlink:href="#q" transform="matrix(0.9429995404751689,-0.3327940303906012,0.3327940303906012,0.9429995404751689,2312.5701709273335,3052.7277658827556) translate(207.4691358024691 18.444444444444443)"/><path d="M2001.75 2669.75c0 10.9-8.84 19.75-19.75 19.75-10.9 0-19.75-8.84-19.75-19.75 0-10.9 8.84-19.75 19.75-19.75 10.9 0 19.75 8.84 19.75 19.75z" stroke="#333" fill="#fff"/><path d="M1982 2689.5v50.3a17.25 17.25 0 0 0 2.67 9.22L2022 2808m-40-63.2l-40 63.2m0-98.75h80" stroke="#333" fill="none"/><path d="M1942 2655a5 5 0 0 1 5-5h70a5 5 0 0 1 5 5v170a5 5 0 0 1-5 5h-70a5 5 0 0 1-5-5z" fill="none"/><use xlink:href="#r" transform="matrix(1,0,0,1,1862,2808) translate(64.79012345679013 14.888888888888888)"/><path d="M1983 2742l321.22-1.9M1983.03 2742H1982" stroke="#5e5e5e" stroke-width="2" fill="none"/><path d="M2319.48 2740.02l-14.24 4.72-.05-9.27z" stroke="#5e5e5e" stroke-width="2" fill="#5e5e5e"/><path d="M2022 2700.76a6 6 0 0 1 6-6h270.7a6 6 0 0 1 6 6v38.68a6 6 0 0 1-6 6H2028a6 6 0 0 1-6-6z" fill="none"/><g><use xlink:href="#s" transform="matrix(1,0,0,1,2034,2706.761922096608) translate(0 17.944444444444443)"/><use xlink:href="#i" transform="matrix(1,0,0,1,2034,2706.761922096608) translate(143.9506172839506 17.944444444444443)"/></g><path d="M1983.44 2740.9l154.2 318.18M1983.45 2740.92l-.45-.92" stroke="#5e5e5e" stroke-width="2" fill="none"/><path d="M2144.3 3072.8l-10.4-10.8 8.34-4.05z" stroke="#5e5e5e" stroke-width="2" fill="#5e5e5e"/><g><path d="M2062.44 2815.3a6 6 0 0 1 7.98 2.88l107.17 228.3a6 6 0 0 1-2.9 7.97l-35 16.44a6 6 0 0 1-8-2.9l-107.15-228.3a6 6 0 0 1 2.88-7.97z" fill="none"/></g><g><use xlink:href="#s" transform="matrix(0.42492128168298965,0.9052303046036878,-0.9052303046036878,0.42492128168298965,2062.110346127918,2828.7093256872804) translate(0 17.944444444444443)"/><use xlink:href="#k" transform="matrix(0.42492128168298965,0.9052303046036878,-0.9052303046036878,0.42492128168298965,2062.110346127918,2828.7093256872804) translate(143.9506172839506 17.944444444444443)"/></g><defs><path fill="#333" d="M197 0v-219H63V0H30v-248h201V0h-34" id="t"/><path fill="#333" d="M141-36C126-15 110 5 73 4 37 3 15-17 15-53c-1-64 63-63 125-63 3-35-9-54-41-54-24 1-41 7-42 31l-33-3c5-37 33-52 76-52 45 0 72 20 72 64v82c-1 20 7 32 28 27v20c-31 9-61-2-59-35zM48-53c0 20 12 33 32 33 41-3 63-29 60-74-43 2-92-5-92 41" id="u"/><path fill="#333" d="M57-190v167h83v-167h32v167h26v95h-29V0H25v-190h32" id="v"/><path fill="#333" d="M56-190L54-37l88-153h34V0h-30l2-153L59 0H25v-190h31" id="w"/><path fill="#333" d="M100-194c63 0 86 42 84 106H49c0 40 14 67 53 68 26 1 43-12 49-29l28 8c-11 28-37 45-77 45C44 4 14-33 15-96c1-61 26-98 85-98zm52 81c6-60-76-77-97-28-3 7-6 17-6 28h103" id="x"/><path fill="#333" d="M57-190v80h85v-80h32V0h-32v-87H57V0H25v-190h32" id="y"/><path fill="#333" d="M6-190h153v23H98V0H67v-167H6v-23" id="z"/><g id="a"><use transform="matrix(0.04938271604938272,0,0,0.04938271604938272,0,0)" xlink:href="#t"/><use transform="matrix(0.04938271604938272,0,0,0.04938271604938272,12.740740740740742,0)" xlink:href="#u"/><use transform="matrix(0.04938271604938272,0,0,0.04938271604938272,22.617283950617285,0)" xlink:href="#v"/><use transform="matrix(0.04938271604938272,0,0,0.04938271604938272,32.79012345679013,0)" xlink:href="#w"/><use transform="matrix(0.04938271604938272,0,0,0.04938271604938272,42.71604938271605,0)" xlink:href="#x"/><use transform="matrix(0.04938271604938272,0,0,0.04938271604938272,52.592592592592595,0)" xlink:href="#y"/><use transform="matrix(0.04938271604938272,0,0,0.04938271604938272,62.370370370370374,0)" xlink:href="#z"/></g><path fill="#333" d="M206-28h31V72h-32V0H34v72H3V-28h25c38-50 38-143 51-220h127v220zm-32 0v-192h-66C95-156 94-78 66-28h108" id="A"/><path fill="#333" d="M100-194c62-1 85 37 85 99 1 63-27 99-86 99S16-35 15-95c0-66 28-99 85-99zM99-20c44 1 53-31 53-75 0-43-8-75-51-75s-53 32-53 75 10 74 51 75" id="B"/><path fill="#333" d="M75-87c-4 1-14 3-19 3V0H24v-190h32v83c26-2 31-21 43-41l26-42h33l-61 86L159 0h-35" id="C"/><path fill="#333" d="M115-194c55 1 70 41 70 98S169 2 115 4C84 4 66-9 55-30l1 105H24l-1-265h31l2 30c10-21 28-34 59-34zm-8 174c40 0 45-34 45-75s-6-73-45-74c-42 0-51 32-51 76 0 43 10 73 51 73" id="D"/><g id="b"><use transform="matrix(0.04938271604938272,0,0,0.04938271604938272,0,0)" xlink:href="#A"/><use transform="matrix(0.04938271604938272,0,0,0.04938271604938272,12.197530864197534,0)" xlink:href="#B"/><use transform="matrix(0.04938271604938272,0,0,0.04938271604938272,22.074074074074076,0)" xlink:href="#C"/><use transform="matrix(0.04938271604938272,0,0,0.04938271604938272,30.0246913580247,0)" xlink:href="#z"/><use transform="matrix(0.04938271604938272,0,0,0.04938271604938272,37.92592592592593,0)" xlink:href="#B"/><use transform="matrix(0.04938271604938272,0,0,0.04938271604938272,47.802469135802475,0)" xlink:href="#D"/></g><path fill="#fff" d="M179 0l43-219H87L45 0H11l48-248h202L213 0h-34" id="E"/><path fill="#fff" d="M30-147c31-64 166-65 159 27C183-49 158 1 86 4 9 8 1-88 30-147zM88-20c53 0 68-48 68-100 0-31-11-51-44-50-52 1-68 46-68 97 0 32 13 53 44 53" id="F"/><path fill="#fff" d="M44-68c0 29 11 47 38 47 30 0 42-19 51-41l28 9C148-21 126 4 82 4 31 4 10-29 12-85c3-77 74-140 146-93 12 8 15 23 18 40l-31 5c-1-22-13-36-36-36-52 0-65 49-65 101" id="G"/><path fill="#fff" d="M111-194c62-3 86 47 72 106H45c-7 38 6 69 45 68 27-1 43-14 53-32l24 11C152-15 129 4 87 4 38 3 12-23 12-71c0-70 32-119 99-123zm44 81c14-66-71-72-95-28-4 8-8 17-11 28h106" id="H"/><path fill="#fff" d="M161-79c-6 25-8 62 24 58 72-9 58-107 78-169h31L262-23h26l-19 95h-29l15-72h-27l5-33c-13 19-26 36-58 36-29 0-45-14-49-40C113-16 99 3 65 3c-91 0-29-128-24-193h31L46-48c-3 36 50 31 65 10 26-37 28-101 41-152h31" id="I"/><path fill="#fff" d="M75-190l-16 80h85l15-80h32L154 0h-31l16-87H54L38 0H6l37-190h32" id="J"/><path fill="#fff" d="M67 3c-93-2-31-127-26-193h32L48-50c-3 39 53 32 70 12 30-34 30-101 43-152h32L157 0h-30c1-10 6-24 4-33-14 20-29 37-64 36" id="K"/><g id="c"><use transform="matrix(0.04938271604938272,0,0,0.04938271604938272,0,0)" xlink:href="#E"/><use transform="matrix(0.04938271604938272,0,0,0.04938271604938272,12.839506172839508,0)" xlink:href="#F"/><use transform="matrix(0.04938271604938272,0,0,0.04938271604938272,22.71604938271605,0)" xlink:href="#G"/><use transform="matrix(0.04938271604938272,0,0,0.04938271604938272,31.60493827160494,0)" xlink:href="#H"/><use transform="matrix(0.04938271604938272,0,0,0.04938271604938272,41.48148148148148,0)" xlink:href="#I"/><use transform="matrix(0.04938271604938272,0,0,0.04938271604938272,56.592592592592595,0)" xlink:href="#H"/><use transform="matrix(0.04938271604938272,0,0,0.04938271604938272,66.46913580246914,0)" xlink:href="#J"/><use transform="matrix(0.04938271604938272,0,0,0.04938271604938272,76.24691358024691,0)" xlink:href="#K"/><use transform="matrix(0.04938271604938272,0,0,0.04938271604938272,86.12345679012346,0)" xlink:href="#H"/></g><path fill="#fff" d="M99-119c-9 3-21 5-32 6L45 0H11l48-248h34L72-139c41-1 55-33 74-55l47-54h36c-35 37-64 80-103 112L189 0h-37" id="L"/><path fill="#fff" d="M165-48c-4 18 1 34 23 27l-3 20c-29 8-62 0-52-35h-2C116-14 99 4 63 4 30 4 8-16 8-49c0-68 71-67 138-67 10-26 0-56-31-54-26 1-42 9-47 31l-32-5c8-67 160-71 144 15-5 28-9 54-15 81zM42-50c3 52 80 24 89-6 7-12 7-24 11-38-47 1-103-4-100 44" id="M"/><path fill="#fff" d="M67-162c32-53 139-36 121 50C175-51 163 2 97 4 68 4 52-11 42-31 38 6 28 39 22 75H-9l50-265h29c-1 10 0 20-3 28zm89 36c0-26-10-43-35-43-54 0-67 50-69 103-1 29 14 45 42 46 53 0 62-58 62-106" id="N"/><path fill="#fff" d="M248-111c6-24 9-61-24-58-72 9-57 108-77 169h-31l26-142c3-37-50-30-64-10C52-115 50-51 37 0H6l36-190h30c-1 10-6 24-4 32 13-43 101-52 105 5 13-22 29-41 61-41 90 0 28 129 23 194h-31" id="O"/><g id="d"><use transform="matrix(0.04938271604938272,0,0,0.04938271604938272,0,0)" xlink:href="#L"/><use transform="matrix(0.04938271604938272,0,0,0.04938271604938272,10.469135802469136,0)" xlink:href="#M"/><use transform="matrix(0.04938271604938272,0,0,0.04938271604938272,20.34567901234568,0)" xlink:href="#N"/><use transform="matrix(0.04938271604938272,0,0,0.04938271604938272,30.222222222222225,0)" xlink:href="#O"/><use transform="matrix(0.04938271604938272,0,0,0.04938271604938272,44.79012345679013,0)" xlink:href="#M"/></g><path fill="#fff" d="M191-190L154 0h-31l32-167H70L38 0H6l37-190h148" id="P"/><path fill="#fff" d="M68 3c-93-2-32-129-26-193h31L48-50c-2 38 54 32 71 12 30-35 29-101 43-152h32L161-23h26l-19 95h-28l14-72h-26c-1-12 6-25 4-33-14 20-29 37-64 36" id="Q"/><g id="e"><use transform="matrix(0.04938271604938272,0,0,0.04938271604938272,0,0)" xlink:href="#P"/><use transform="matrix(0.04938271604938272,0,0,0.04938271604938272,9.777777777777779,0)" xlink:href="#M"/><use transform="matrix(0.04938271604938272,0,0,0.04938271604938272,19.654320987654323,0)" xlink:href="#Q"/><use transform="matrix(0.04938271604938272,0,0,0.04938271604938272,29.77777777777778,0)" xlink:href="#K"/><use transform="matrix(0.04938271604938272,0,0,0.04938271604938272,39.65432098765432,0)" xlink:href="#H"/><use transform="matrix(0.04938271604938272,0,0,0.04938271604938272,49.53086419753087,0)" xlink:href="#J"/><use transform="matrix(0.04938271604938272,0,0,0.04938271604938272,59.308641975308646,0)" xlink:href="#O"/><use transform="matrix(0.04938271604938272,0,0,0.04938271604938272,73.87654320987654,0)" xlink:href="#M"/></g><path fill="#333" d="M200-71c5 87-137 96-174 38-6-8-10-16-14-25l29-13c12 25 29 48 67 48 33 0 58-14 58-48 0-41-36-45-82-44v-26c42 2 76-5 75-43-1-27-20-40-49-40-34 0-53 18-62 43l-31-10c14-38 43-60 94-60 47 0 79 19 81 64 1 36-22 50-49 58 33 5 55 22 57 58" id="R"/><path fill="#333" d="M170-190V0h-32v-167H57V0H25v-190h145" id="S"/><path fill="#333" d="M96-169c-40 0-48 33-48 73s9 75 48 75c24 0 41-14 43-38l32 2c-6 37-31 61-74 61-59 0-76-41-82-99-10-93 101-131 147-64 4 7 5 14 7 22l-32 3c-4-21-16-35-41-35" id="T"/><g id="f"><use transform="matrix(0.06172839506172839,0,0,0.06172839506172839,0,0)" xlink:href="#R"/><use transform="matrix(0.06172839506172839,0,0,0.06172839506172839,13.395061728395062,0)" xlink:href="#u"/><use transform="matrix(0.06172839506172839,0,0,0.06172839506172839,25.74074074074074,0)" xlink:href="#S"/><use transform="matrix(0.06172839506172839,0,0,0.06172839506172839,37.71604938271605,0)" xlink:href="#D"/><use transform="matrix(0.06172839506172839,0,0,0.06172839506172839,50.06172839506173,0)" xlink:href="#B"/><use transform="matrix(0.06172839506172839,0,0,0.06172839506172839,62.407407407407405,0)" xlink:href="#T"/></g><g id="g"><use transform="matrix(0.06172839506172839,0,0,0.06172839506172839,0,0)" xlink:href="#y"/><use transform="matrix(0.06172839506172839,0,0,0.06172839506172839,12.222222222222221,0)" xlink:href="#u"/></g><path fill="#333" d="M217-194c52 0 64 44 64 98S268 2 217 4c-29 1-44-13-55-34l1 105h-30V-31C124-8 108 4 79 4 29 4 16-37 15-94c0-57 15-98 64-100 29 0 44 14 55 33l-1-100h30v101c10-23 24-34 54-34zM89-170c-37 1-41 36-41 75 0 37 3 74 40 74 39 0 45-35 45-76-1-39-6-73-44-73zM207-20c38 0 41-36 41-75 0-38-3-74-40-74-41 0-45 36-45 80 1 38 7 69 44 69" id="U"/><path fill="#333" d="M138 0h-27L54-167c3 53 2 111 2 167H25v-190h49c16 56 39 106 51 166 11-61 34-110 50-166h48V0h-31l2-168" id="V"/><path fill="#333" d="M153 0v-167H87C74-108 81-27 38 0 29 5 12 6 2 1v-22c51 4 39-64 49-112 5-25 4-25 8-57h126V0h-32" id="W"/><g id="h"><use transform="matrix(0.06172839506172839,0,0,0.06172839506172839,0,0)" xlink:href="#B"/><use transform="matrix(0.06172839506172839,0,0,0.06172839506172839,12.345679012345679,0)" xlink:href="#U"/><use transform="matrix(0.06172839506172839,0,0,0.06172839506172839,30.617283950617285,0)" xlink:href="#B"/><use transform="matrix(0.06172839506172839,0,0,0.06172839506172839,42.96296296296296,0)" xlink:href="#D"/><use transform="matrix(0.06172839506172839,0,0,0.06172839506172839,55.30864197530864,0)" xlink:href="#V"/><use transform="matrix(0.06172839506172839,0,0,0.06172839506172839,70.55555555555556,0)" xlink:href="#W"/><use transform="matrix(0.06172839506172839,0,0,0.06172839506172839,83.51851851851852,0)" xlink:href="#x"/><use transform="matrix(0.06172839506172839,0,0,0.06172839506172839,95.8641975308642,0)" xlink:href="#y"/><use transform="matrix(0.06172839506172839,0,0,0.06172839506172839,108.08641975308643,0)" xlink:href="#w"/><use transform="matrix(0.06172839506172839,0,0,0.06172839506172839,120.49382716049384,0)" xlink:href="#x"/></g><path fill="#333" d="M25 0v-190h32v167h71v-167h31v167h71v-167h32v167h26v95h-29V0H25" id="X"/><path fill="#333" d="M20-138c-1-64 85-51 150-52V0h-32v-81H94L39 0H3l60-83c-28-5-43-24-43-55zm33 3c0 40 46 33 85 33v-66c-39 0-85-6-85 33" id="Y"/><g id="i"><use transform="matrix(0.06172839506172839,0,0,0.06172839506172839,0,0)" xlink:href="#S"/><use transform="matrix(0.06172839506172839,0,0,0.06172839506172839,11.975308641975309,0)" xlink:href="#B"/><use transform="matrix(0.06172839506172839,0,0,0.06172839506172839,24.320987654320987,0)" xlink:href="#T"/><use transform="matrix(0.06172839506172839,0,0,0.06172839506172839,35.4320987654321,0)" xlink:href="#x"/><use transform="matrix(0.06172839506172839,0,0,0.06172839506172839,47.77777777777778,0)" xlink:href="#X"/><use transform="matrix(0.06172839506172839,0,0,0.06172839506172839,65.80246913580247,0)" xlink:href="#x"/><use transform="matrix(0.06172839506172839,0,0,0.06172839506172839,78.14814814814815,0)" xlink:href="#y"/><use transform="matrix(0.06172839506172839,0,0,0.06172839506172839,90.37037037037038,0)" xlink:href="#w"/><use transform="matrix(0.06172839506172839,0,0,0.06172839506172839,102.77777777777779,0)" xlink:href="#Y"/></g><path fill="#333" d="M100-194c63 0 86 42 84 106H49c0 40 14 67 53 68 26 1 43-12 49-29l28 8c-11 28-37 45-77 45C44 4 14-33 15-96c1-61 26-98 85-98zm52 81c6-60-76-77-97-28-3 7-6 17-6 28h103zm-31-101v-33h29v33h-29zm-69 0v-33h29v33H52" id="Z"/><g id="j"><use transform="matrix(0.06172839506172839,0,0,0.06172839506172839,0,0)" xlink:href="#t"/><use transform="matrix(0.06172839506172839,0,0,0.06172839506172839,15.925925925925926,0)" xlink:href="#D"/><use transform="matrix(0.06172839506172839,0,0,0.06172839506172839,28.271604938271604,0)" xlink:href="#w"/><use transform="matrix(0.06172839506172839,0,0,0.06172839506172839,40.67901234567901,0)" xlink:href="#Z"/><use transform="matrix(0.06172839506172839,0,0,0.06172839506172839,53.02469135802469,0)" xlink:href="#V"/></g><g id="k"><use transform="matrix(0.06172839506172839,0,0,0.06172839506172839,0,0)" xlink:href="#S"/><use transform="matrix(0.06172839506172839,0,0,0.06172839506172839,11.975308641975309,0)" xlink:href="#u"/><use transform="matrix(0.06172839506172839,0,0,0.06172839506172839,24.320987654320987,0)" xlink:href="#v"/><use transform="matrix(0.06172839506172839,0,0,0.06172839506172839,37.03703703703704,0)" xlink:href="#w"/><use transform="matrix(0.06172839506172839,0,0,0.06172839506172839,49.44444444444444,0)" xlink:href="#x"/><use transform="matrix(0.06172839506172839,0,0,0.06172839506172839,61.79012345679012,0)" xlink:href="#y"/><use transform="matrix(0.06172839506172839,0,0,0.06172839506172839,74.01234567901234,0)" xlink:href="#z"/><use transform="matrix(0.06172839506172839,0,0,0.06172839506172839,83.88888888888889,0)" xlink:href="#u"/></g><path fill="#333" d="M173-56C173 11 92 0 25 0v-190h32v80c58-2 117-2 116 54zm-34 0c0-39-44-31-82-32v66c39 0 82 6 82-34" id="aa"/><g id="l"><use transform="matrix(0.06172839506172839,0,0,0.06172839506172839,0,0)" xlink:href="#R"/><use transform="matrix(0.06172839506172839,0,0,0.06172839506172839,13.395061728395062,0)" xlink:href="#u"/><use transform="matrix(0.06172839506172839,0,0,0.06172839506172839,25.74074074074074,0)" xlink:href="#S"/><use transform="matrix(0.06172839506172839,0,0,0.06172839506172839,37.71604938271605,0)" xlink:href="#w"/><use transform="matrix(0.06172839506172839,0,0,0.06172839506172839,50.123456790123456,0)" xlink:href="#T"/><use transform="matrix(0.06172839506172839,0,0,0.06172839506172839,61.23456790123457,0)" xlink:href="#aa"/></g><use transform="matrix(0.06172839506172839,0,0,0.06172839506172839,0,0)" xlink:href="#B" id="m"/><g id="n"><use transform="matrix(0.06172839506172839,0,0,0.06172839506172839,0,0)" xlink:href="#S"/><use transform="matrix(0.06172839506172839,0,0,0.06172839506172839,11.975308641975309,0)" xlink:href="#u"/><use transform="matrix(0.06172839506172839,0,0,0.06172839506172839,24.320987654320987,0)" xlink:href="#v"/><use transform="matrix(0.06172839506172839,0,0,0.06172839506172839,37.03703703703704,0)" xlink:href="#w"/><use transform="matrix(0.06172839506172839,0,0,0.06172839506172839,49.44444444444444,0)" xlink:href="#x"/><use transform="matrix(0.06172839506172839,0,0,0.06172839506172839,61.79012345679012,0)" xlink:href="#y"/><use transform="matrix(0.06172839506172839,0,0,0.06172839506172839,74.01234567901234,0)" xlink:href="#z"/><use transform="matrix(0.06172839506172839,0,0,0.06172839506172839,83.88888888888889,0)" xlink:href="#x"/></g><path fill="#333" d="M160-131c35 5 61 23 61 61C221 17 115-2 30 0v-248c76 3 177-17 177 60 0 33-19 50-47 57zm-97-11c50-1 110 9 110-42 0-47-63-36-110-37v79zm0 115c55-2 124 14 124-45 0-56-70-42-124-44v89" id="ab"/><g id="o"><use transform="matrix(0.06172839506172839,0,0,0.06172839506172839,0,0)" xlink:href="#ab"/><use transform="matrix(0.06172839506172839,0,0,0.06172839506172839,14.814814814814813,0)" xlink:href="#y"/><use transform="matrix(0.06172839506172839,0,0,0.06172839506172839,27.037037037037035,0)" xlink:href="#x"/><use transform="matrix(0.06172839506172839,0,0,0.06172839506172839,39.382716049382715,0)" xlink:href="#T"/><use transform="matrix(0.06172839506172839,0,0,0.06172839506172839,50.49382716049382,0)" xlink:href="#x"/><use transform="matrix(0.06172839506172839,0,0,0.06172839506172839,62.8395061728395,0)" xlink:href="#y"/><use transform="matrix(0.06172839506172839,0,0,0.06172839506172839,75.06172839506172,0)" xlink:href="#w"/><use transform="matrix(0.06172839506172839,0,0,0.06172839506172839,87.46913580246913,0)" xlink:href="#x"/></g><path fill="#333" d="M147-167H93C83-118 77-63 59-23h88v-144zM24-23c26-44 31-102 41-167h113v167h26v95h-29V0H32v72H4v-95h20" id="ac"/><path fill="#333" d="M170-56C169 10 92 0 25 0v-190h32v80c58-2 114-1 113 54zm-34 0c0-38-42-32-79-32v66c38 0 79 5 79-34zm66 56v-190h32V0h-32" id="ad"/><path fill="#333" d="M141 0L90-78 38 0H4l68-98-65-92h35l48 74 47-74h35l-64 92 68 98h-35" id="ae"/><g id="p"><use transform="matrix(0.06172839506172839,0,0,0.06172839506172839,0,0)" xlink:href="#ac"/><use transform="matrix(0.06172839506172839,0,0,0.06172839506172839,12.962962962962962,0)" xlink:href="#u"/><use transform="matrix(0.06172839506172839,0,0,0.06172839506172839,25.30864197530864,0)" xlink:href="#y"/><use transform="matrix(0.06172839506172839,0,0,0.06172839506172839,37.53086419753086,0)" xlink:href="#y"/><use transform="matrix(0.06172839506172839,0,0,0.06172839506172839,49.75308641975308,0)" xlink:href="#ad"/><use transform="matrix(0.06172839506172839,0,0,0.06172839506172839,65.67901234567901,0)" xlink:href="#ae"/></g><g id="q"><use transform="matrix(0.06172839506172839,0,0,0.06172839506172839,0,0)" xlink:href="#S"/><use transform="matrix(0.06172839506172839,0,0,0.06172839506172839,11.975308641975309,0)" xlink:href="#B"/><use transform="matrix(0.06172839506172839,0,0,0.06172839506172839,24.320987654320987,0)" xlink:href="#T"/><use transform="matrix(0.06172839506172839,0,0,0.06172839506172839,35.4320987654321,0)" xlink:href="#x"/><use transform="matrix(0.06172839506172839,0,0,0.06172839506172839,47.77777777777778,0)" xlink:href="#X"/><use transform="matrix(0.06172839506172839,0,0,0.06172839506172839,65.80246913580247,0)" xlink:href="#x"/><use transform="matrix(0.06172839506172839,0,0,0.06172839506172839,78.14814814814815,0)" xlink:href="#y"/><use transform="matrix(0.06172839506172839,0,0,0.06172839506172839,90.37037037037038,0)" xlink:href="#w"/><use transform="matrix(0.06172839506172839,0,0,0.06172839506172839,102.77777777777779,0)" xlink:href="#w"/></g><path fill="#333" d="M30-248c87 1 191-15 191 75 0 78-77 80-158 76V0H30v-248zm33 125c57 0 124 11 124-50 0-59-68-47-124-48v98" id="af"/><path fill="#333" d="M121-190v23H57V0H25v-190h96" id="ag"/><path fill="#333" d="M179-190L93 31C79 59 56 82 12 73V49c39 6 53-20 64-50L1-190h34L92-34l54-156h33" id="ah"/><g id="r"><use transform="matrix(0.04938271604938272,0,0,0.04938271604938272,0,0)" xlink:href="#af"/><use transform="matrix(0.04938271604938272,0,0,0.04938271604938272,11.06172839506173,0)" xlink:href="#x"/><use transform="matrix(0.04938271604938272,0,0,0.04938271604938272,20.938271604938272,0)" xlink:href="#ag"/><use transform="matrix(0.04938271604938272,0,0,0.04938271604938272,27.40740740740741,0)" xlink:href="#w"/><use transform="matrix(0.04938271604938272,0,0,0.04938271604938272,37.333333333333336,0)" xlink:href="#T"/><use transform="matrix(0.04938271604938272,0,0,0.04938271604938272,46.22222222222223,0)" xlink:href="#z"/><use transform="matrix(0.04938271604938272,0,0,0.04938271604938272,54.320987654320994,0)" xlink:href="#D"/><use transform="matrix(0.04938271604938272,0,0,0.04938271604938272,64.19753086419755,0)" xlink:href="#u"/><use transform="matrix(0.04938271604938272,0,0,0.04938271604938272,73.67901234567903,0)" xlink:href="#z"/><use transform="matrix(0.04938271604938272,0,0,0.04938271604938272,81.97530864197532,0)" xlink:href="#ah"/><use transform="matrix(0.04938271604938272,0,0,0.04938271604938272,90.66666666666667,0)" xlink:href="#D"/><use transform="matrix(0.04938271604938272,0,0,0.04938271604938272,100.54320987654322,0)" xlink:href="#u"/></g><path fill="#333" d="M140-251c81 0 123 46 123 126C263-46 219 4 140 4 59 4 17-45 17-125s42-126 123-126zm0 227c63 0 89-41 89-101s-29-99-89-99c-61 0-89 39-89 99S79-25 140-24" id="ai"/><g id="s"><use transform="matrix(0.06172839506172839,0,0,0.06172839506172839,0,0)" xlink:href="#ai"/><use transform="matrix(0.06172839506172839,0,0,0.06172839506172839,17.28395061728395,0)" xlink:href="#U"/><use transform="matrix(0.06172839506172839,0,0,0.06172839506172839,35.55555555555556,0)" xlink:href="#B"/><use transform="matrix(0.06172839506172839,0,0,0.06172839506172839,47.901234567901234,0)" xlink:href="#D"/><use transform="matrix(0.06172839506172839,0,0,0.06172839506172839,60.24691358024691,0)" xlink:href="#V"/><use transform="matrix(0.06172839506172839,0,0,0.06172839506172839,75.49382716049382,0)" xlink:href="#W"/><use transform="matrix(0.06172839506172839,0,0,0.06172839506172839,88.45679012345678,0)" xlink:href="#x"/><use transform="matrix(0.06172839506172839,0,0,0.06172839506172839,100.80246913580247,0)" xlink:href="#y"/><use transform="matrix(0.06172839506172839,0,0,0.06172839506172839,113.02469135802468,0)" xlink:href="#w"/><use transform="matrix(0.06172839506172839,0,0,0.06172839506172839,125.43209876543209,0)" xlink:href="#x"/></g></defs></g></svg>