<svg xmlns="http://www.w3.org/2000/svg" xmlns:xlink="http://www.w3.org/1999/xlink" xmlns:lucid="lucid" width="891.83" height="762.12"><g transform="translate(-1675.888888888889 -2608.4385887632748)" lucid:page-tab-id="0_0"><path d="M1500 2500h1500v1000H1500z" fill="#fafafa"/><path d="M1950.75 2833.2c0 10.9-8.84 19.74-19.75 19.74-10.9 0-19.75-8.84-19.75-19.75 0-10.92 8.84-19.76 19.75-19.76 10.9 0 19.75 8.84 19.75 19.75z" stroke="#333" fill="#fff"/><path d="M1931 2852.94v50.3a17.25 17.25 0 0 0 2.67 9.22l37.33 58.98m-40-63.2l-40 63.2m0-98.75h80" stroke="#333" fill="none"/><path d="M1891 2818.44a5 5 0 0 1 5-5h70a5 5 0 0 1 5 5v170a5 5 0 0 1-5 5h-70a5 5 0 0 1-5-5z" fill="none"/><use xlink:href="#a" transform="matrix(1,0,0,1,1811,2971.4385887632748) translate(26.617283950617264 14.888888888888888)"/><use xlink:href="#b" transform="matrix(1,0,0,1,1811,2971.4385887632748) translate(146.71604938271605 14.888888888888888)"/><use xlink:href="#c" transform="matrix(1,0,0,1,1811,2971.4385887632748) translate(157.53086419753086 14.888888888888888)"/><path d="M2260 2702.44c0 29.27-58.65 53-131 53s-131-23.73-131-53 58.65-53 131-53 131 23.73 131 53z" stroke="#fff" fill="#00c2a8"/><use xlink:href="#d" transform="matrix(1,0,0,1,1998,2649.4385887632748) translate(16.75808641975305 57.28472222222222)"/><path d="M1815.75 2648.2c0 10.9-8.84 19.74-19.75 19.74-10.9 0-19.75-8.84-19.75-19.75 0-10.92 8.84-19.76 19.75-19.76 10.9 0 19.75 8.84 19.75 19.75z" stroke="#333" fill="#fff"/><path d="M1796 2667.94v50.3a17.25 17.25 0 0 0 2.67 9.22l37.33 58.98m-40-63.2l-40 63.2m0-98.75h80" stroke="#333" fill="none"/><path d="M1756 2633.44a5 5 0 0 1 5-5h70a5 5 0 0 1 5 5v170a5 5 0 0 1-5 5h-70a5 5 0 0 1-5-5z" fill="none"/><use xlink:href="#e" transform="matrix(1,0,0,1,1676,2786.4385887632748) translate(72.19753086419753 14.888888888888888)"/><path d="M1815.75 3125.2c0 10.9-8.84 19.74-19.75 19.74-10.9 0-19.75-8.84-19.75-19.75 0-10.92 8.84-19.76 19.75-19.76 10.9 0 19.75 8.84 19.75 19.75z" stroke="#333" fill="#fff"/><path d="M1796 3144.94v50.3a17.25 17.25 0 0 0 2.67 9.22l37.33 58.98m-40-63.2l-40 63.2m0-98.75h80" stroke="#333" fill="none"/><path d="M1756 3110.44a5 5 0 0 1 5-5h70a5 5 0 0 1 5 5v170a5 5 0 0 1-5 5h-70a5 5 0 0 1-5-5z" fill="none"/><use xlink:href="#a" transform="matrix(1,0,0,1,1676,3263.4385887632748) translate(20.888888888888886 14.888888888888888)"/><use xlink:href="#b" transform="matrix(1,0,0,1,1676,3263.4385887632748) translate(140.98765432098767 14.888888888888888)"/><use xlink:href="#f" transform="matrix(1,0,0,1,1676,3263.4385887632748) translate(151.80246913580248 14.888888888888888)"/><path d="M1800.28 3089.1l-3.78-386.6" stroke="#333" fill="none"/><path d="M1800.43 3103.88l-4.78-14.22 9.27-.1z" stroke="#333" fill="#333"/><path d="M1796.5 2702.5l-.03-3.5M1918.36 2802.5l-121.47-100.18" stroke="#333" fill="none"/><path d="M1929.75 2811.9l-13.95-5.5 5.9-7.14z" stroke="#333" fill="#333"/><path d="M1796.9 2702.33l-2.7-2.24M1797 2702h184.13M1797 2702h-3.5" stroke="#333" fill="none"/><path d="M1995.9 2702l-14.27 4.64v-9.28z" stroke="#333" fill="#333"/><path d="M2541 2808.44c0 29.27-58.65 53-131 53s-131-23.73-131-53 58.65-53 131-53 131 23.73 131 53z" stroke="#fff" fill="#00c2a8"/><use xlink:href="#g" transform="matrix(1,0,0,1,2279,2755.4385887632748) translate(30.239567901234558 57.28472222222222)"/><use xlink:href="#h" transform="matrix(1,0,0,1,2279,2755.4385887632748) translate(123.12845679012345 57.28472222222222)"/><path d="M2505 2946c0 29.27-42.53 53-95 53s-95-23.73-95-53 42.53-53 95-53 95 23.73 95 53z" stroke="#fff" fill="#00c2a8"/><use xlink:href="#g" transform="matrix(1,0,0,1,2315,2893) translate(11.696358024691344 57.28472222222222)"/><use xlink:href="#i" transform="matrix(1,0,0,1,2315,2893) translate(104.58524691358024 57.28472222222222)"/><path d="M2547.72 3083.56c0 29.27-58.65 53-131 53s-131-23.73-131-53 58.65-53 131-53 131 23.73 131 53z" stroke="#fff" fill="#00c2a8"/><use xlink:href="#g" transform="matrix(1,0,0,1,2285.7211235482782,3030.5614112367252) translate(38.091419753086406 57.28472222222222)"/><use xlink:href="#j" transform="matrix(1,0,0,1,2285.7211235482782,3030.5614112367252) translate(130.98030864197528 57.28472222222222)"/><path d="M2262.58 2812.32l-330.6 80.56" stroke="#333" fill="none"/><path d="M2276.93 2808.82l-12.76 7.88-2.2-9z" stroke="#333" fill="#333"/><path d="M1932 2892.88l-3.4.83M2298.3 2943.65l-359.83-52.16" stroke="#333" fill="none"/><path d="M2312.9 2945.77l-14.78 2.54 1.33-9.17z" stroke="#333" fill="#333"/><path d="M1938.48 2891.5l-.5-.08M2270.8 3075.8l-338.86-182.56" stroke="#333" fill="none"/><path d="M2283.8 3082.8l-14.76-2.7 4.4-8.15z" stroke="#333" fill="#333"/><path d="M1931.95 2893.24l-3.1-1.66" stroke="#333" fill="none"/><path d="M2224 3172c0 29.27-42.53 53-95 53s-95-23.73-95-53 42.53-53 95-53 95 23.73 95 53z" stroke="#fff" fill="#00c2a8"/><use xlink:href="#g" transform="matrix(1,0,0,1,2034,3119) translate(20.60993827160494 47.34722222222222)"/><use xlink:href="#k" transform="matrix(1,0,0,1,2034,3119) translate(113.49882716049383 47.34722222222222)"/><use xlink:href="#l" transform="matrix(1,0,0,1,2034,3119) translate(53.12845679012345 68.68055555555556)"/><path d="M2224 3297.56c0 29.27-42.53 53-95 53s-95-23.73-95-53 42.53-53 95-53 95 23.73 95 53z" stroke="#fff" fill="#00c2a8"/><use xlink:href="#g" transform="matrix(1,0,0,1,2034,3244.5614112367252) translate(20.73339506172838 47.34722222222222)"/><use xlink:href="#m" transform="matrix(1,0,0,1,2034,3244.5614112367252) translate(113.62228395061727 47.34722222222222)"/><use xlink:href="#n" transform="matrix(1,0,0,1,2034,3244.5614112367252) translate(54.19018518518518 68.68055555555556)"/><path d="M2017.14 3172.85L1797 3184.28" stroke="#333" fill="none"/><path d="M2031.88 3172.08l-14 5.37-.48-9.26z" stroke="#333" fill="#333"/><path d="M1797 3184.28l-3.5.18M2018.7 3290.5l-221.75-105.8" stroke="#333" fill="none"/><path d="M2032.04 3296.86l-14.87-1.95 4-8.36z" stroke="#333" fill="#333"/><path d="M1796.96 3184.7l-3.17-1.5" stroke="#333" fill="none"/><path d="M2521 3297.56c0 29.27-42.53 53-95 53s-95-23.73-95-53 42.53-53 95-53 95 23.73 95 53z" stroke="#fff" fill="#00c2a8"/><use xlink:href="#o" transform="matrix(1,0,0,1,2331,3244.5614112367252) translate(40.01734567901234 47.34722222222222)"/><use xlink:href="#p" transform="matrix(1,0,0,1,2331,3244.5614112367252) translate(48.73339506172839 68.68055555555556)"/><path d="M2314.12 3297.56H2225" stroke="#333" fill="none"/><path d="M2328.88 3297.56l-14.26 4.64v-9.27z" stroke="#333" fill="#333"/><path d="M2225 3298.06h-.5v-1h.5z" stroke="#333" stroke-width=".05" fill="#333"/><path d="M2275.7 3101.4l-51.2 65.8" stroke="#333" fill="none"/><path d="M2284.77 3089.75l-5.1 14.1-7.32-5.7z" stroke="#333" fill="#333"/><path d="M2224.9 3167.5l-.63.8-.1-.88-.1-.5.03-.03z" stroke="#333" stroke-width=".05" fill="#333"/><path d="M2265.58 2818.5l-468.7 365.5" stroke="#333" fill="none"/><path d="M2277.22 2809.43l-8.4 12.43-5.7-7.3z" stroke="#333" fill="#333"/><path d="M1796.9 3183.98l-2.77 2.16M2299.62 2952.85l-502.67 231.48" stroke="#333" fill="none"/><path d="M2313.03 2946.68l-11.02 10.17-3.87-8.42z" stroke="#333" fill="#333"/><path d="M1796.97 3184.33l-3.2 1.47" stroke="#333" fill="none"/><defs><path fill="#333" d="M197 0v-219H63V0H30v-248h201V0h-34" id="q"/><path fill="#333" d="M100-194c62-1 85 37 85 99 1 63-27 99-86 99S16-35 15-95c0-66 28-99 85-99zM99-20c44 1 53-31 53-75 0-43-8-75-51-75s-53 32-53 75 10 74 51 75" id="r"/><path fill="#333" d="M153 0v-167H87C74-108 81-27 38 0 29 5 12 6 2 1v-22c51 4 39-64 49-112 5-25 4-25 8-57h126V0h-32" id="s"/><path fill="#333" d="M173-56C173 11 92 0 25 0v-190h32v80c58-2 117-2 116 54zm-34 0c0-39-44-31-82-32v66c39 0 82 6 82-34" id="t"/><path fill="#333" d="M152-53C154 19 21 22 9-41l28-8c5 36 84 42 81-4-1-29-28-34-58-35v-24c28 0 55-4 55-30 0-19-14-29-34-28-20 0-35 7-38 25l-28-3c4-33 30-46 66-46 37 0 66 15 66 50 0 27-20 41-44 44 27 5 48 17 49 47" id="u"/><path fill="#333" d="M176-55C176 11 93 0 25 0v-190c61 3 142-15 144 47 1 29-21 35-39 44 27 3 46 16 46 44zm-34 0c0-41-47-30-85-32v64c38-1 85 8 85-32zm-6-83c0-36-44-26-79-28v56c34-2 79 8 79-28" id="v"/><path fill="#333" d="M141-36C126-15 110 5 73 4 37 3 15-17 15-53c-1-64 63-63 125-63 3-35-9-54-41-54-24 1-41 7-42 31l-33-3c5-37 33-52 76-52 45 0 72 20 72 64v82c-1 20 7 32 28 27v20c-31 9-61-2-59-35zM48-53c0 20 12 33 32 33 41-3 63-29 60-74-43 2-92-5-92 41" id="w"/><path fill="#333" d="M6-190h153v23H98V0H67v-167H6v-23" id="x"/><path fill="#333" d="M100-194c63 0 86 42 84 106H49c0 40 14 67 53 68 26 1 43-12 49-29l28 8c-11 28-37 45-77 45C44 4 14-33 15-96c1-61 26-98 85-98zm52 81c6-60-76-77-97-28-3 7-6 17-6 28h103" id="y"/><g id="a"><use transform="matrix(0.04938271604938272,0,0,0.04938271604938272,0,0)" xlink:href="#q"/><use transform="matrix(0.04938271604938272,0,0,0.04938271604938272,12.740740740740742,0)" xlink:href="#r"/><use transform="matrix(0.04938271604938272,0,0,0.04938271604938272,22.222222222222225,0)" xlink:href="#s"/><use transform="matrix(0.04938271604938272,0,0,0.04938271604938272,32.592592592592595,0)" xlink:href="#t"/><use transform="matrix(0.04938271604938272,0,0,0.04938271604938272,41.827160493827165,0)" xlink:href="#u"/><use transform="matrix(0.04938271604938272,0,0,0.04938271604938272,49.777777777777786,0)" xlink:href="#r"/><use transform="matrix(0.04938271604938272,0,0,0.04938271604938272,59.65432098765432,0)" xlink:href="#v"/><use transform="matrix(0.04938271604938272,0,0,0.04938271604938272,68.8888888888889,0)" xlink:href="#w"/><use transform="matrix(0.04938271604938272,0,0,0.04938271604938272,78.37037037037038,0)" xlink:href="#x"/><use transform="matrix(0.04938271604938272,0,0,0.04938271604938272,86.27160493827162,0)" xlink:href="#y"/><use transform="matrix(0.04938271604938272,0,0,0.04938271604938272,95.55555555555557,0)" xlink:href="#s"/><use transform="matrix(0.04938271604938272,0,0,0.04938271604938272,105.92592592592594,0)" xlink:href="#t"/></g><path fill="#333" d="M16-82v-28h88v28H16" id="z"/><use transform="matrix(0.04938271604938272,0,0,0.04938271604938272,0,0)" xlink:href="#z" id="b"/><path fill="#333" d="M147-167H93C83-118 77-63 59-23h88v-144zM24-23c26-44 31-102 41-167h113v167h26v95h-29V0H32v72H4v-95h20" id="A"/><path fill="#333" d="M75-87c-4 1-14 3-19 3V0H24v-190h32v83c26-2 31-21 43-41l26-42h33l-61 86L159 0h-35" id="B"/><path fill="#333" d="M115-194c55 1 70 41 70 98S169 2 115 4C84 4 66-9 55-30l1 105H24l-1-265h31l2 30c10-21 28-34 59-34zm-8 174c40 0 45-34 45-75s-6-73-45-74c-42 0-51 32-51 76 0 43 10 73 51 73" id="C"/><g id="c"><use transform="matrix(0.04938271604938272,0,0,0.04938271604938272,0,0)" xlink:href="#A"/><use transform="matrix(0.04938271604938272,0,0,0.04938271604938272,10.370370370370372,0)" xlink:href="#r"/><use transform="matrix(0.04938271604938272,0,0,0.04938271604938272,20.24691358024692,0)" xlink:href="#B"/><use transform="matrix(0.04938271604938272,0,0,0.04938271604938272,28.19753086419754,0)" xlink:href="#x"/><use transform="matrix(0.04938271604938272,0,0,0.04938271604938272,36.09876543209877,0)" xlink:href="#r"/><use transform="matrix(0.04938271604938272,0,0,0.04938271604938272,45.97530864197532,0)" xlink:href="#C"/></g><path fill="#fff" d="M187 0l-14-72H61L19 0h-37l149-248h38L221 0h-34zm-19-99l-22-123L76-99h92" id="D"/><path fill="#fff" d="M59-175c30-27 118-26 118 27 0 33-26 40-48 50 22 4 39 15 39 41C168 16 69 8 7-4c15-59 13-137 52-171zm76 119c0-34-43-32-81-31L42-23c39 4 93 9 93-33zm-41-54c49 12 71-58 17-58-36 0-47 25-52 58h35" id="E"/><path fill="#fff" d="M248-111c6-24 9-61-24-58-72 9-57 108-77 169h-31l26-142c3-37-50-30-64-10C52-115 50-51 37 0H6l36-190h30c-1 10-6 24-4 32 13-43 101-52 105 5 13-22 29-41 61-41 90 0 28 129 23 194h-31" id="F"/><path fill="#fff" d="M30-147c31-64 166-65 159 27C183-49 158 1 86 4 9 8 1-88 30-147zM88-20c53 0 68-48 68-100 0-31-11-51-44-50-52 1-68 46-68 97 0 32 13 53 44 53" id="G"/><path fill="#fff" d="M67-162c32-53 139-36 121 50C175-51 163 2 97 4 68 4 52-11 42-31 38 6 28 39 22 75H-9l50-265h29c-1 10 0 20-3 28zm89 36c0-26-10-43-35-43-54 0-67 50-69 103-1 29 14 45 42 46 53 0 62-58 62-106" id="H"/><path fill="#fff" d="M67 3c-93-2-31-127-26-193h32L48-50c-3 39 53 32 70 12 30-34 30-101 43-152h32L157 0h-30c1-10 6-24 4-33-14 20-29 37-64 36" id="I"/><path fill="#fff" d="M145-55C149 17 8 26-2-41l29-8c4 39 86 41 84-6-1-27-25-33-53-33l5-24c31 0 62-3 62-34 0-36-68-28-72 1l-29-3c6-58 134-65 134 0 0 32-26 44-53 50 25 2 39 19 40 43" id="J"/><path fill="#fff" d="M165-48c-4 18 1 34 23 27l-3 20c-29 8-62 0-52-35h-2C116-14 99 4 63 4 30 4 8-16 8-49c0-68 71-67 138-67 10-26 0-56-31-54-26 1-42 9-47 31l-32-5c8-67 160-71 144 15-5 28-9 54-15 81zM42-50c3 52 80 24 89-6 7-12 7-24 11-38-47 1-103-4-100 44" id="K"/><path fill="#fff" d="M68 3c-93-2-32-129-26-193h31L48-50c-2 38 54 32 71 12 30-35 29-101 43-152h32L161-23h26l-19 95h-28l14-72h-26c-1-12 6-25 4-33-14 20-29 37-64 36" id="L"/><path fill="#fff" d="M25-132c0-73 90-56 160-58L148 0h-31l15-81H91L28 0H-8l67-83c-18-7-34-23-34-49zm85-36c-53-12-72 64-20 66h46l13-66h-39" id="M"/><path fill="#fff" d="M-20 4l123-265h28L8 4h-28" id="N"/><path fill="#fff" d="M111-194c62-3 86 47 72 106H45c-7 38 6 69 45 68 27-1 43-14 53-32l24 11C152-15 129 4 87 4 38 3 12-23 12-71c0-70 32-119 99-123zm44 81c14-66-71-72-95-28-4 8-8 17-11 28h106" id="O"/><path fill="#fff" d="M129-128c22-16 2-41-27-41-26 0-40 8-47 26l-26-8c8-55 142-64 140 5-2 65-92 46-125 84-13 24 8 42 36 41 26-1 44-8 51-28l25 10C147 18 6 23 8-47c1-64 83-53 121-81" id="P"/><path fill="#fff" d="M44-68c0 29 11 47 38 47 30 0 42-19 51-41l28 9C148-21 126 4 82 4 31 4 10-29 12-85c3-77 74-140 146-93 12 8 15 23 18 40l-31 5c-1-22-13-36-36-36-52 0-65 49-65 101" id="Q"/><g id="d"><use transform="matrix(0.04938271604938272,0,0,0.04938271604938272,0,0)" xlink:href="#D"/><use transform="matrix(0.04938271604938272,0,0,0.04938271604938272,11.851851851851853,0)" xlink:href="#E"/><use transform="matrix(0.04938271604938272,0,0,0.04938271604938272,20.88888888888889,0)" xlink:href="#F"/><use transform="matrix(0.04938271604938272,0,0,0.04938271604938272,35.45679012345679,0)" xlink:href="#G"/><use transform="matrix(0.04938271604938272,0,0,0.04938271604938272,45.333333333333336,0)" xlink:href="#H"/><use transform="matrix(0.04938271604938272,0,0,0.04938271604938272,55.20987654320988,0)" xlink:href="#I"/><use transform="matrix(0.04938271604938272,0,0,0.04938271604938272,65.08641975308643,0)" xlink:href="#J"/><use transform="matrix(0.04938271604938272,0,0,0.04938271604938272,73.13580246913581,0)" xlink:href="#K"/><use transform="matrix(0.04938271604938272,0,0,0.04938271604938272,83.01234567901236,0)" xlink:href="#L"/><use transform="matrix(0.04938271604938272,0,0,0.04938271604938272,93.13580246913581,0)" xlink:href="#I"/><use transform="matrix(0.04938271604938272,0,0,0.04938271604938272,103.01234567901236,0)" xlink:href="#M"/><use transform="matrix(0.04938271604938272,0,0,0.04938271604938272,112.49382716049384,0)" xlink:href="#N"/><use transform="matrix(0.04938271604938272,0,0,0.04938271604938272,117.43209876543212,0)" xlink:href="#H"/><use transform="matrix(0.04938271604938272,0,0,0.04938271604938272,127.30864197530865,0)" xlink:href="#O"/><use transform="matrix(0.04938271604938272,0,0,0.04938271604938272,137.1851851851852,0)" xlink:href="#P"/><use transform="matrix(0.04938271604938272,0,0,0.04938271604938272,145.92592592592592,0)" xlink:href="#I"/><use transform="matrix(0.04938271604938272,0,0,0.04938271604938272,155.80246913580248,0)" xlink:href="#Q"/><use transform="matrix(0.04938271604938272,0,0,0.04938271604938272,164.69135802469137,0)" xlink:href="#F"/><use transform="matrix(0.04938271604938272,0,0,0.04938271604938272,179.2592592592593,0)" xlink:href="#H"/><use transform="matrix(0.04938271604938272,0,0,0.04938271604938272,189.13580246913585,0)" xlink:href="#K"/><use transform="matrix(0.04938271604938272,0,0,0.04938271604938272,199.0123456790124,0)" xlink:href="#L"/><use transform="matrix(0.04938271604938272,0,0,0.04938271604938272,209.13580246913585,0)" xlink:href="#I"/><use transform="matrix(0.04938271604938272,0,0,0.04938271604938272,219.0123456790124,0)" xlink:href="#M"/></g><path fill="#333" d="M96-169c-40 0-48 33-48 73s9 75 48 75c24 0 41-14 43-38l32 2c-6 37-31 61-74 61-59 0-76-41-82-99-10-93 101-131 147-64 4 7 5 14 7 22l-32 3c-4-21-16-35-41-35" id="R"/><path fill="#333" d="M56-190L54-37l88-153h34V0h-30l2-153L59 0H25v-190h31" id="S"/><g id="e"><use transform="matrix(0.04938271604938272,0,0,0.04938271604938272,0,0)" xlink:href="#q"/><use transform="matrix(0.04938271604938272,0,0,0.04938271604938272,12.740740740740742,0)" xlink:href="#r"/><use transform="matrix(0.04938271604938272,0,0,0.04938271604938272,22.617283950617285,0)" xlink:href="#R"/><use transform="matrix(0.04938271604938272,0,0,0.04938271604938272,31.506172839506174,0)" xlink:href="#y"/><use transform="matrix(0.04938271604938272,0,0,0.04938271604938272,40.79012345679013,0)" xlink:href="#x"/><use transform="matrix(0.04938271604938272,0,0,0.04938271604938272,48.88888888888889,0)" xlink:href="#S"/><use transform="matrix(0.04938271604938272,0,0,0.04938271604938272,58.81481481481482,0)" xlink:href="#x"/><use transform="matrix(0.04938271604938272,0,0,0.04938271604938272,66.71604938271605,0)" xlink:href="#y"/><use transform="matrix(0.04938271604938272,0,0,0.04938271604938272,76,0)" xlink:href="#s"/><use transform="matrix(0.04938271604938272,0,0,0.04938271604938272,86.37037037037037,0)" xlink:href="#t"/></g><path fill="#333" d="M170-190V0h-32v-167H57V0H25v-190h145" id="T"/><path fill="#333" d="M57-190v167h83v-167h32v167h26v95h-29V0H25v-190h32" id="U"/><path fill="#333" d="M57-190v80h85v-80h32V0h-32v-87H57V0H25v-190h32" id="V"/><g id="f"><use transform="matrix(0.04938271604938272,0,0,0.04938271604938272,0,0)" xlink:href="#T"/><use transform="matrix(0.04938271604938272,0,0,0.04938271604938272,9.580246913580249,0)" xlink:href="#w"/><use transform="matrix(0.04938271604938272,0,0,0.04938271604938272,19.45679012345679,0)" xlink:href="#U"/><use transform="matrix(0.04938271604938272,0,0,0.04938271604938272,29.629629629629633,0)" xlink:href="#S"/><use transform="matrix(0.04938271604938272,0,0,0.04938271604938272,39.55555555555556,0)" xlink:href="#y"/><use transform="matrix(0.04938271604938272,0,0,0.04938271604938272,49.4320987654321,0)" xlink:href="#V"/><use transform="matrix(0.04938271604938272,0,0,0.04938271604938272,59.20987654320988,0)" xlink:href="#x"/></g><path fill="#fff" d="M179 0l43-219H87L45 0H11l48-248h202L213 0h-34" id="W"/><path fill="#fff" d="M240-190L203 0h-30l34-168L118 0H92L68-167 37 0H6l37-190h46l19 166c25-58 56-111 84-166h48" id="X"/><g id="g"><use transform="matrix(0.04938271604938272,0,0,0.04938271604938272,0,0)" xlink:href="#W"/><use transform="matrix(0.04938271604938272,0,0,0.04938271604938272,12.839506172839508,0)" xlink:href="#H"/><use transform="matrix(0.04938271604938272,0,0,0.04938271604938272,22.71604938271605,0)" xlink:href="#G"/><use transform="matrix(0.04938271604938272,0,0,0.04938271604938272,32.592592592592595,0)" xlink:href="#Q"/><use transform="matrix(0.04938271604938272,0,0,0.04938271604938272,41.48148148148148,0)" xlink:href="#X"/><use transform="matrix(0.04938271604938272,0,0,0.04938271604938272,53.62962962962963,0)" xlink:href="#G"/><use transform="matrix(0.04938271604938272,0,0,0.04938271604938272,63.50617283950618,0)" xlink:href="#F"/><use transform="matrix(0.04938271604938272,0,0,0.04938271604938272,78.07407407407408,0)" xlink:href="#H"/></g><path fill="#fff" d="M198-190L69 30C53 58 25 83-20 72c4-11-1-27 19-22 33-1 43-29 59-52L20-190h32L79-34l84-156h35" id="Y"/><path fill="#fff" d="M188-155C184-77 168 4 86 4 35 4 7-29 12-84c5-54 32-96 89-96 26 0 46 10 57 26 8-58-28-99-83-80l-8-21c71-22 125 22 121 100zM45-81c-13 59 60 82 88 39 21-32 36-117-27-115-45 2-52 36-61 76" id="Z"/><path fill="#fff" d="M-12-22c37 7 42-31 52-61l37-107h119L159 0h-32l32-167h-58C80-114 67-49 35-9 25 4 1 8-17 0" id="aa"/><path fill="#fff" d="M75-190l-16 80h85l15-80h32L154 0h-31l16-87H54L38 0H6l37-190h32" id="ab"/><path fill="#fff" d="M191-260c-7 48-95 68-125 25-4-5-7-12-10-19l26-10c8 17 18 33 43 32 26-1 40-15 48-34zM67 3c-93-2-31-127-26-193h32L48-50c-3 39 53 32 70 12 30-34 30-101 43-152h32L157 0h-30c1-10 6-24 4-33-14 20-29 37-64 36" id="ac"/><g id="h"><use transform="matrix(0.04938271604938272,0,0,0.04938271604938272,0,0)" xlink:href="#Y"/><use transform="matrix(0.04938271604938272,0,0,0.04938271604938272,8.88888888888889,0)" xlink:href="#E"/><use transform="matrix(0.04938271604938272,0,0,0.04938271604938272,17.728395061728396,0)" xlink:href="#O"/><use transform="matrix(0.04938271604938272,0,0,0.04938271604938272,27.40740740740741,0)" xlink:href="#Z"/><use transform="matrix(0.04938271604938272,0,0,0.04938271604938272,37.18518518518519,0)" xlink:href="#G"/><use transform="matrix(0.04938271604938272,0,0,0.04938271604938272,47.061728395061735,0)" xlink:href="#X"/><use transform="matrix(0.04938271604938272,0,0,0.04938271604938272,59.209876543209894,0)" xlink:href="#aa"/><use transform="matrix(0.04938271604938272,0,0,0.04938271604938272,69.23456790123458,0)" xlink:href="#O"/><use transform="matrix(0.04938271604938272,0,0,0.04938271604938272,79.11111111111113,0)" xlink:href="#ab"/><use transform="matrix(0.04938271604938272,0,0,0.04938271604938272,88.88888888888891,0)" xlink:href="#I"/><use transform="matrix(0.04938271604938272,0,0,0.04938271604938272,98.76543209876546,0)" xlink:href="#ac"/></g><path fill="#fff" d="M191-190L154 0h-31l32-167H70L38 0H6l37-190h148" id="ad"/><path fill="#fff" d="M123-28C108-12 96 5 65 4 23 3 8-32 13-77c6-62 21-115 84-117 28-1 42 16 51 35l19-102h32l-19 99c22-47 115-41 109 31-6 70-17 132-84 135-28 1-42-16-51-35-4 37-14 70-20 106h-31zM45-64c0 25 7 43 31 43 51 0 62-53 62-103 0-27-11-46-38-46-49 0-55 60-55 106zm211-62c0-26-6-43-30-43-52 0-59 52-62 103-2 27 13 46 37 46 49 0 55-59 55-106" id="ae"/><g id="i"><use transform="matrix(0.04938271604938272,0,0,0.04938271604938272,0,0)" xlink:href="#ad"/><use transform="matrix(0.04938271604938272,0,0,0.04938271604938272,9.777777777777779,0)" xlink:href="#H"/><use transform="matrix(0.04938271604938272,0,0,0.04938271604938272,19.654320987654323,0)" xlink:href="#G"/><use transform="matrix(0.04938271604938272,0,0,0.04938271604938272,29.530864197530867,0)" xlink:href="#ae"/><use transform="matrix(0.04938271604938272,0,0,0.04938271604938272,44.345679012345684,0)" xlink:href="#I"/><use transform="matrix(0.04938271604938272,0,0,0.04938271604938272,54.22222222222223,0)" xlink:href="#aa"/><use transform="matrix(0.04938271604938272,0,0,0.04938271604938272,64.24691358024693,0)" xlink:href="#M"/></g><path fill="#fff" d="M161-79c-6 25-8 62 24 58 72-9 58-107 78-169h31L262-23h26l-19 95h-29l15-72h-27l5-33c-13 19-26 36-58 36-29 0-45-14-49-40C113-16 99 3 65 3c-91 0-29-128-24-193h31L46-48c-3 36 50 31 65 10 26-37 28-101 41-152h31" id="af"/><g id="j"><use transform="matrix(0.04938271604938272,0,0,0.04938271604938272,0,0)" xlink:href="#ad"/><use transform="matrix(0.04938271604938272,0,0,0.04938271604938272,9.777777777777779,0)" xlink:href="#G"/><use transform="matrix(0.04938271604938272,0,0,0.04938271604938272,19.654320987654323,0)" xlink:href="#Q"/><use transform="matrix(0.04938271604938272,0,0,0.04938271604938272,28.543209876543212,0)" xlink:href="#O"/><use transform="matrix(0.04938271604938272,0,0,0.04938271604938272,38.41975308641976,0)" xlink:href="#af"/><use transform="matrix(0.04938271604938272,0,0,0.04938271604938272,53.53086419753088,0)" xlink:href="#O"/><use transform="matrix(0.04938271604938272,0,0,0.04938271604938272,63.407407407407426,0)" xlink:href="#ab"/><use transform="matrix(0.04938271604938272,0,0,0.04938271604938272,73.18518518518519,0)" xlink:href="#I"/><use transform="matrix(0.04938271604938272,0,0,0.04938271604938272,83.06172839506173,0)" xlink:href="#ac"/></g><path fill="#fff" d="M43-190h32l-17 83c31-2 40-21 56-41l34-42h34l-65 76c-5 5-9 9-12 11L146 0h-32L80-88c-8 2-15 5-26 4L38 0H6" id="ag"/><path fill="#fff" d="M189 0l37-190h32L221 0h-32zM59-110c54-1 108-1 109 51C169 15 70 9 7-4l36-186h32zm76 54c0-36-44-31-81-31L42-23c39 4 93 9 93-33" id="ah"/><g id="k"><use transform="matrix(0.04938271604938272,0,0,0.04938271604938272,0,0)" xlink:href="#ag"/><use transform="matrix(0.04938271604938272,0,0,0.04938271604938272,8.34567901234568,0)" xlink:href="#K"/><use transform="matrix(0.04938271604938272,0,0,0.04938271604938272,18.222222222222225,0)" xlink:href="#H"/><use transform="matrix(0.04938271604938272,0,0,0.04938271604938272,28.09876543209877,0)" xlink:href="#F"/><use transform="matrix(0.04938271604938272,0,0,0.04938271604938272,42.8641975308642,0)" xlink:href="#ah"/></g><g id="l"><use transform="matrix(0.04938271604938272,0,0,0.04938271604938272,0,0)" xlink:href="#ad"/><use transform="matrix(0.04938271604938272,0,0,0.04938271604938272,9.777777777777779,0)" xlink:href="#K"/><use transform="matrix(0.04938271604938272,0,0,0.04938271604938272,19.654320987654323,0)" xlink:href="#L"/><use transform="matrix(0.04938271604938272,0,0,0.04938271604938272,29.77777777777778,0)" xlink:href="#I"/><use transform="matrix(0.04938271604938272,0,0,0.04938271604938272,39.65432098765432,0)" xlink:href="#O"/><use transform="matrix(0.04938271604938272,0,0,0.04938271604938272,49.53086419753087,0)" xlink:href="#ab"/><use transform="matrix(0.04938271604938272,0,0,0.04938271604938272,59.308641975308646,0)" xlink:href="#F"/><use transform="matrix(0.04938271604938272,0,0,0.04938271604938272,73.87654320987654,0)" xlink:href="#K"/></g><g id="m"><use transform="matrix(0.04938271604938272,0,0,0.04938271604938272,0,0)" xlink:href="#Q"/><use transform="matrix(0.04938271604938272,0,0,0.04938271604938272,8.88888888888889,0)" xlink:href="#ad"/><use transform="matrix(0.04938271604938272,0,0,0.04938271604938272,18.666666666666668,0)" xlink:href="#I"/><use transform="matrix(0.04938271604938272,0,0,0.04938271604938272,28.543209876543212,0)" xlink:href="#Q"/><use transform="matrix(0.04938271604938272,0,0,0.04938271604938272,37.4320987654321,0)" xlink:href="#ag"/><use transform="matrix(0.04938271604938272,0,0,0.04938271604938272,45.777777777777786,0)" xlink:href="#K"/></g><g id="n"><use transform="matrix(0.04938271604938272,0,0,0.04938271604938272,0,0)" xlink:href="#Z"/><use transform="matrix(0.04938271604938272,0,0,0.04938271604938272,9.777777777777779,0)" xlink:href="#G"/><use transform="matrix(0.04938271604938272,0,0,0.04938271604938272,19.654320987654323,0)" xlink:href="#ag"/><use transform="matrix(0.04938271604938272,0,0,0.04938271604938272,28.19753086419753,0)" xlink:href="#F"/><use transform="matrix(0.04938271604938272,0,0,0.04938271604938272,42.76543209876544,0)" xlink:href="#G"/><use transform="matrix(0.04938271604938272,0,0,0.04938271604938272,52.64197530864198,0)" xlink:href="#H"/><use transform="matrix(0.04938271604938272,0,0,0.04938271604938272,62.518518518518526,0)" xlink:href="#G"/><use transform="matrix(0.04938271604938272,0,0,0.04938271604938272,72.39506172839506,0)" xlink:href="#E"/></g><path fill="#fff" d="M20-101c0-91 52-143 145-150 126-9 127 168 53 223-23 17-55 32-93 32C57 4 20-33 20-101zm216-33c5-57-18-91-73-90-77 1-110 51-110 125 0 49 23 75 73 75 72-1 104-45 110-110" id="ai"/><g id="o"><use transform="matrix(0.04938271604938272,0,0,0.04938271604938272,0,0)" xlink:href="#ai"/><use transform="matrix(0.04938271604938272,0,0,0.04938271604938272,13.827160493827162,0)" xlink:href="#ae"/><use transform="matrix(0.04938271604938272,0,0,0.04938271604938272,28.83950617283951,0)" xlink:href="#G"/><use transform="matrix(0.04938271604938272,0,0,0.04938271604938272,38.71604938271605,0)" xlink:href="#H"/><use transform="matrix(0.04938271604938272,0,0,0.04938271604938272,48.39506172839506,0)" xlink:href="#X"/><use transform="matrix(0.04938271604938272,0,0,0.04938271604938272,60.543209876543216,0)" xlink:href="#aa"/><use transform="matrix(0.04938271604938272,0,0,0.04938271604938272,70.56790123456791,0)" xlink:href="#O"/><use transform="matrix(0.04938271604938272,0,0,0.04938271604938272,80.44444444444446,0)" xlink:href="#ab"/><use transform="matrix(0.04938271604938272,0,0,0.04938271604938272,90.22222222222223,0)" xlink:href="#I"/><use transform="matrix(0.04938271604938272,0,0,0.04938271604938272,100.09876543209877,0)" xlink:href="#O"/></g><g id="p"><use transform="matrix(0.04938271604938272,0,0,0.04938271604938272,0,0)" xlink:href="#ad"/><use transform="matrix(0.04938271604938272,0,0,0.04938271604938272,9.777777777777779,0)" xlink:href="#G"/><use transform="matrix(0.04938271604938272,0,0,0.04938271604938272,19.654320987654323,0)" xlink:href="#Q"/><use transform="matrix(0.04938271604938272,0,0,0.04938271604938272,28.543209876543212,0)" xlink:href="#O"/><use transform="matrix(0.04938271604938272,0,0,0.04938271604938272,38.41975308641976,0)" xlink:href="#af"/><use transform="matrix(0.04938271604938272,0,0,0.04938271604938272,53.53086419753088,0)" xlink:href="#O"/><use transform="matrix(0.04938271604938272,0,0,0.04938271604938272,63.407407407407426,0)" xlink:href="#ab"/><use transform="matrix(0.04938271604938272,0,0,0.04938271604938272,73.18518518518519,0)" xlink:href="#I"/><use transform="matrix(0.04938271604938272,0,0,0.04938271604938272,83.06172839506173,0)" xlink:href="#M"/></g></defs></g></svg>